<?xml version="1.0" encoding="iso-8859-1"?>
<!-- Generator: Adobe Illustrator 16.0.0, SVG Export Plug-In . SVG Version: 6.00 Build 0)  -->
<!DOCTYPE svg PUBLIC "-//W3C//DTD SVG 1.1//EN" "http://www.w3.org/Graphics/SVG/1.1/DTD/svg11.dtd">
<svg version="1.1" id="Capa_1" xmlns="http://www.w3.org/2000/svg" xmlns:xlink="http://www.w3.org/1999/xlink" x="0px" y="0px"
	 width="802px" height="802px" viewBox="0 0 802 802" style="enable-background:new 0 0 802 802;" xml:space="preserve">
<g>
	<g>
		<path d="M802,685.5v-363H0v363c0,16.6,13.4,30,30,30h742C788.6,715.5,802,702.1,802,685.5z M530.6,531.1c0,16.601-13.399,30-30,30
			H443v58.4c0,16.6-13.4,30-30,30h-24c-16.6,0-30-13.4-30-30v-58.4h-57.6c-16.601,0-30-13.399-30-30v-24c0-16.6,13.399-30,30-30H359
			v-57.6c0-16.6,13.4-30,30-30h24c16.6,0,30,13.4,30,30v57.6h57.6c16.601,0,30,13.4,30,30V531.1z"/>
		<path d="M802,223.5c0-16.6-13.4-30-30-30H609.8v-77c0-16.6-13.399-30-30-30H222.2c-16.6,0-30,13.4-30,30v77H30
			c-16.6,0-30,13.4-30,30v64h802V223.5z M549.8,193.5H252.2v-47h297.5v47H549.8z"/>
	</g>
</g>
<g>
</g>
<g>
</g>
<g>
</g>
<g>
</g>
<g>
</g>
<g>
</g>
<g>
</g>
<g>
</g>
<g>
</g>
<g>
</g>
<g>
</g>
<g>
</g>
<g>
</g>
<g>
</g>
<g>
</g>
</svg>
